#Comment line ignore any data following # character 
#Hierarchical Translation and Rotation (.htr) file 
[Header]	
#Header keywords are followed by a single value 
FileType HTR		#Single word string
DataType HTRS		#Translation followed by rotation and scale data
FileVersion 1		#integer
NumSegments 64		#integer
NumFrames 3		#integer
DataFrameRate 30		#integer, data frame rate in this file
EulerRotationOrder ZYX
CalibrationUnits mm
RotationUnits Degrees
GlobalAxisofGravity Y
BoneLengthAxis Y
ScaleFactor 1.00
[SegmentNames&Hierarchy]
#CHILD	PARENT
Pinger_Root GLOBAL
Pelvis Pinger_Root
L_Hip Pelvis
R_Hip Pelvis
Rear_Leg01 Pelvis
Spine1 Pelvis
L_Leg01 L_Hip
L_Leg02 L_Leg01
L_Leg03 L_Leg02
L_Foot L_Leg03
L_Toe1_01 L_Foot
L_Toe2_01 L_Foot
L_Toe3_01 L_Foot
planeAlignerLeft L_Foot
L_Toe1_02 L_Toe1_01
L_Toe1_03 L_Toe1_02
L_Toe2_02 L_Toe2_01
L_Toe2_03 L_Toe2_02
L_Toe3_02 L_Toe3_01
L_Toe3_03 L_Toe3_02
planeLockWeightLeft planeAlignerLeft
R_Leg01 R_Hip
R_Leg02 R_Leg01
R_Leg03 R_Leg02
R_Foot R_Leg03
planeAlignerRight R_Foot
R_Toe1_01 R_Foot
R_Toe2_01 R_Foot
R_Toe3_01 R_Foot
planeLockWeightRight planeAlignerRight
R_Toe1_02 R_Toe1_01
R_Toe1_03 R_Toe1_02
R_Toe2_02 R_Toe2_01
R_Toe2_03 R_Toe2_02
R_Toe3_02 R_Toe3_01
R_Toe3_03 R_Toe3_02
Rear_Leg02 Rear_Leg01
Rear_Leg03 Rear_Leg02
Rear_Leg04 Rear_Leg03
Rear_Foot Rear_Leg04
planeAlignerCenter Rear_Foot
Rear_Toe1_01 Rear_Foot
Rear_Toe2_01 Rear_Foot
Rear_Toe3_01 Rear_Foot
planeLockWeightCenter planeAlignerCenter
Rear_Toe1_02 Rear_Toe1_01
Rear_Toe1_03 Rear_Toe1_02
Rear_Toe2_02 Rear_Toe2_01
Rear_Toe2_03 Rear_Toe2_02
Rear_Toe3_02 Rear_Toe3_01
Rear_Toe3_03 Rear_Toe3_02
Back_Bone Spine1
Head Spine1
Motor_Bone Back_Bone
Ping_Mechanism Back_Bone
BN_LookIK Head
bottomMouth Head
L_Mouth01 Head
L_mouthFront Head
mouthGun Head
R_Mouth01 Head
R_mouthFront Head
TopMouth Head
weapon_bone Head
[BasePosition]
#SegmentName Tx, Ty, Tz, Rx, Ry, Rz, BoneLength
Pinger_Root 0.000000 0.000000 0.000000 -90.000000 0.000000 0.000000 10.000000 
Pelvis 0.000000 0.000000 0.000000 0.000000 0.000000 0.000000 10.000000 
L_Hip 0.000000 0.000000 0.000000 0.000000 0.000000 0.000000 10.000000 
R_Hip 0.000000 0.000000 0.000000 0.000000 0.000000 0.000000 10.000000 
Rear_Leg01 0.000000 0.000000 0.000000 0.000000 0.000000 0.000000 10.000000 
Spine1 0.000000 0.000000 0.000000 0.000000 0.000000 0.000000 10.000000 
L_Leg01 0.000000 0.000000 0.000000 0.000000 0.000000 0.000000 10.000000 
L_Leg02 0.000000 0.000000 0.000000 0.000000 0.000000 0.000000 10.000000 
L_Leg03 0.000000 0.000000 0.000000 0.000000 0.000000 0.000000 10.000000 
L_Foot 0.000000 0.000000 0.000000 0.000000 0.000000 0.000000 10.000000 
L_Toe1_01 0.000000 0.000000 0.000000 0.000000 0.000000 0.000000 10.000000 
L_Toe2_01 0.000000 0.000000 0.000000 0.000000 0.000000 0.000000 10.000000 
L_Toe3_01 0.000000 0.000000 0.000000 0.000000 0.000000 0.000000 10.000000 
planeAlignerLeft 0.000000 0.000000 0.000000 0.000000 0.000000 0.000000 10.000000 
L_Toe1_02 0.000000 0.000000 0.000000 0.000000 0.000000 0.000000 10.000000 
L_Toe1_03 0.000000 0.000000 0.000000 0.000000 0.000000 0.000000 10.000000 
L_Toe2_02 0.000000 0.000000 0.000000 0.000000 0.000000 0.000000 10.000000 
L_Toe2_03 0.000000 0.000000 0.000000 0.000000 0.000000 0.000000 10.000000 
L_Toe3_02 0.000000 0.000000 0.000000 0.000000 0.000000 0.000000 10.000000 
L_Toe3_03 0.000000 0.000000 0.000000 0.000000 0.000000 0.000000 10.000000 
planeLockWeightLeft 0.000000 0.000000 0.000000 0.000000 0.000000 0.000000 10.000000 
R_Leg01 0.000000 0.000000 0.000000 0.000000 0.000000 0.000000 10.000000 
R_Leg02 0.000000 0.000000 0.000000 0.000000 0.000000 0.000000 10.000000 
R_Leg03 0.000000 0.000000 0.000000 0.000000 0.000000 0.000000 10.000000 
R_Foot 0.000000 0.000000 0.000000 0.000000 0.000000 0.000000 10.000000 
planeAlignerRight 0.000000 0.000000 0.000000 0.000000 0.000000 0.000000 10.000000 
R_Toe1_01 0.000000 0.000000 0.000000 0.000000 0.000000 0.000000 10.000000 
R_Toe2_01 0.000000 0.000000 0.000000 0.000000 0.000000 0.000000 10.000000 
R_Toe3_01 0.000000 0.000000 0.000000 0.000000 0.000000 0.000000 10.000000 
planeLockWeightRight 0.000000 0.000000 0.000000 0.000000 0.000000 0.000000 10.000000 
R_Toe1_02 0.000000 0.000000 0.000000 0.000000 0.000000 0.000000 10.000000 
R_Toe1_03 0.000000 0.000000 0.000000 0.000000 0.000000 0.000000 10.000000 
R_Toe2_02 0.000000 0.000000 0.000000 0.000000 0.000000 0.000000 10.000000 
R_Toe2_03 0.000000 0.000000 0.000000 0.000000 0.000000 0.000000 10.000000 
R_Toe3_02 0.000000 0.000000 0.000000 0.000000 0.000000 0.000000 10.000000 
R_Toe3_03 0.000000 0.000000 0.000000 0.000000 0.000000 0.000000 10.000000 
Rear_Leg02 0.000000 0.000000 0.000000 0.000000 0.000000 0.000000 10.000000 
Rear_Leg03 0.000000 0.000000 0.000000 0.000000 0.000000 0.000000 10.000000 
Rear_Leg04 0.000000 0.000000 0.000000 0.000000 0.000000 0.000000 10.000000 
Rear_Foot 0.000000 0.000000 0.000000 0.000000 0.000000 0.000000 10.000000 
planeAlignerCenter 0.000000 0.000000 0.000000 0.000000 0.000000 0.000000 10.000000 
Rear_Toe1_01 0.000000 0.000000 0.000000 0.000000 0.000000 0.000000 10.000000 
Rear_Toe2_01 0.000000 0.000000 0.000000 0.000000 0.000000 0.000000 10.000000 
Rear_Toe3_01 0.000000 0.000000 0.000000 0.000000 0.000000 0.000000 10.000000 
planeLockWeightCenter 0.000000 0.000000 0.000000 0.000000 0.000000 0.000000 10.000000 
Rear_Toe1_02 0.000000 0.000000 0.000000 0.000000 0.000000 0.000000 10.000000 
Rear_Toe1_03 0.000000 0.000000 0.000000 0.000000 0.000000 0.000000 10.000000 
Rear_Toe2_02 0.000000 0.000000 0.000000 0.000000 0.000000 0.000000 10.000000 
Rear_Toe2_03 0.000000 0.000000 0.000000 0.000000 0.000000 0.000000 10.000000 
Rear_Toe3_02 0.000000 0.000000 0.000000 0.000000 0.000000 0.000000 10.000000 
Rear_Toe3_03 0.000000 0.000000 0.000000 0.000000 0.000000 0.000000 10.000000 
Back_Bone 0.000000 0.000000 0.000000 0.000000 0.000000 0.000000 10.000000 
Head 0.000000 0.000000 0.000000 0.000000 0.000000 0.000000 10.000000 
Motor_Bone 0.000000 0.000000 0.000000 0.000000 0.000000 0.000000 10.000000 
Ping_Mechanism 0.000000 0.000000 0.000000 0.000000 0.000000 0.000000 10.000000 
BN_LookIK 0.000000 0.000000 0.000000 0.000000 0.000000 0.000000 10.000000 
bottomMouth 0.000000 0.000000 0.000000 0.000000 0.000000 0.000000 10.000000 
L_Mouth01 0.000000 0.000000 0.000000 0.000000 0.000000 0.000000 10.000000 
L_mouthFront 0.000000 0.000000 0.000000 0.000000 0.000000 0.000000 10.000000 
mouthGun 0.000000 0.000000 0.000000 0.000000 0.000000 0.000000 10.000000 
R_Mouth01 0.000000 0.000000 0.000000 0.000000 0.000000 0.000000 10.000000 
R_mouthFront 0.000000 0.000000 0.000000 0.000000 0.000000 0.000000 10.000000 
TopMouth 0.000000 0.000000 0.000000 0.000000 0.000000 0.000000 10.000000 
weapon_bone 0.000000 0.000000 0.000000 0.000000 0.000000 0.000000 10.000000 
#Beginning of Data. Separated by tabs
#Fr	Tx	Ty	Tz	Rx	Ry	Rz	SF
[Pinger_Root]
21 0.000000 0.000000 0.000000 -0.000075 -0.000000 -0.000020 0.000000
22 0.000000 0.000000 0.000000 -0.000075 -0.000000 -0.000020 0.000000
23 0.000000 0.000000 0.000000 -0.000075 -0.000000 -0.000020 0.000000
[Pelvis]
21 -890.487793 -788.998657 4764.845215 -125.568588 -79.739769 132.494522 4911.134277
22 -1001.914612 -871.743164 4927.780273 -147.722595 -81.313499 152.849503 5103.605469
23 -1096.806274 -1006.668945 5097.983887 -160.816177 -80.474983 162.238617 5310.913574
[L_Hip]
21 5.766392 125.831482 872.656799 163.723587 -46.599773 117.363388 881.701050
22 5.766392 125.831482 872.656799 160.158691 -45.484894 122.312187 881.701050
23 5.766392 125.831482 872.656799 160.158691 -45.484905 122.312202 881.701050
[R_Hip]
21 5.765438 125.836372 -872.654907 37.356823 49.138180 126.561302 881.699829
22 5.765438 125.836372 -872.654907 38.087830 49.812672 125.703735 881.699829
23 5.765438 125.836372 -872.654907 38.087845 49.812687 125.703735 881.699829
[Rear_Leg01]
21 -192.298416 -925.602966 -0.001907 -156.155319 -17.416603 -143.925491 945.367432
22 -192.298416 -925.602966 -0.001907 -157.661224 -15.528369 -141.360260 945.367432
23 -192.298416 -925.602966 -0.001907 -160.705399 -12.657437 -141.905685 945.367432
[Spine1]
21 290.604584 5.007505 0.000477 -13.248203 8.384049 22.605326 290.647736
22 290.604584 5.007505 0.000477 -11.778164 6.873899 22.714891 290.647736
23 290.604584 5.007505 0.000477 -8.141250 4.202384 20.178301 290.647736
[L_Leg01]
21 761.932007 -0.002384 -0.069261 50.006924 -50.910339 -29.416779 761.932068
22 761.932007 -0.002384 -0.069261 56.706173 -44.945164 -36.395271 761.932068
23 761.932007 -0.002384 -0.069261 57.511307 -34.744431 -43.763119 761.932068
[L_Leg02]
21 1441.140503 -0.000954 -0.000715 -13.051519 6.314359 -79.246735 1441.140503
22 1441.140503 -0.000954 -0.000715 -16.154552 8.610683 -70.937843 1441.140503
23 1441.140503 -0.000954 -0.000715 -18.891207 11.401670 -54.821255 1441.140503
[L_Leg03]
21 1686.963989 -0.000715 -0.000954 0.061420 -0.012526 93.787224 1686.963989
22 1686.963989 -0.000715 -0.000954 0.072219 -0.014353 90.581322 1686.963989
23 1686.963989 -0.000715 -0.000954 0.090326 -0.014358 86.023232 1686.963989
[L_Foot]
21 3041.570068 -30.715107 11.297464 -28.734955 29.062540 26.787720 3041.746094
22 3041.570068 -30.715107 11.297464 -25.625751 28.832497 26.166483 3041.746094
23 3041.570068 -30.715107 11.297464 -16.352255 25.722261 25.358976 3041.746094
[L_Toe1_01]
21 -188.216690 -224.732346 -21.137953 61.145973 -2.406484 -161.870468 293.899567
22 -188.216690 -224.732346 -21.137953 64.235077 -4.856925 -159.445099 293.899567
23 -188.216690 -224.732346 -21.137953 71.935593 -9.133460 -157.941483 293.899567
[L_Toe2_01]
21 200.746536 -219.926590 148.838394 -47.906013 6.336041 -59.844341 332.896027
22 200.746536 -219.926590 148.838394 -49.164623 0.313207 -59.808872 332.896027
23 200.746536 -219.926590 148.838394 -55.757107 -9.104547 -64.465813 332.896027
[L_Toe3_01]
21 188.832520 -219.859131 -191.078659 -82.810211 38.852188 -61.184338 347.140900
22 188.832520 -219.859131 -191.078659 -84.672546 32.622852 -63.961712 347.140900
23 188.832520 -219.859131 -191.078659 -89.560234 18.982267 -72.649635 347.140900
[planeAlignerLeft]
21 73.429268 -757.234802 -98.122665 -10.732138 -70.465187 -89.993782 767.088257
22 63.168964 -789.120850 -18.548273 -10.874841 -73.916519 -90.022682 791.862427
23 47.064266 -811.757568 187.245529 -11.239296 -82.156853 -89.904953 834.401733
[L_Toe1_02]
21 413.761139 0.000477 0.000000 0.001384 -26.007856 0.001384 413.761139
22 413.761139 0.000477 0.000000 0.001386 -25.718706 0.001386 413.761139
23 413.761139 0.000477 0.000000 0.001388 -25.429544 0.001388 413.761139
[L_Toe1_03]
21 464.317322 0.000358 -0.000089 0.003716 53.182064 0.003716 464.317322
22 464.317322 0.000358 -0.000089 0.003200 46.974758 0.003200 464.317322
23 464.317322 0.000358 -0.000089 0.002969 43.438881 0.002969 464.317322
[L_Toe2_02]
21 342.235809 -0.000477 0.000238 -0.002573 -39.038616 -0.002573 342.235809
22 342.235809 -0.000477 0.000238 -0.002630 -34.069374 -0.002630 342.235809
23 342.235809 -0.000477 0.000238 -0.002661 -31.589373 -0.002661 342.235809
[L_Toe2_03]
21 420.210846 -0.000715 0.000000 0.006483 34.963612 -0.001403 420.210846
22 420.210846 -0.000715 0.000000 0.006385 30.002548 -0.001690 420.210846
23 420.210846 -0.000715 0.000000 0.006354 27.648466 -0.001820 420.210846
[L_Toe3_02]
21 329.270111 0.000954 0.000000 0.001179 -79.312660 0.001179 329.270111
22 329.270111 0.000954 0.000000 0.001178 -79.647095 0.001178 329.270111
23 329.270111 0.000954 0.000000 0.001180 -77.989250 0.001180 329.270111
[L_Toe3_03]
21 439.137451 -0.001907 0.000954 -179.992447 82.916924 -179.988937 439.137451
22 439.137451 -0.001907 0.000954 -179.993713 81.799866 -179.990219 439.137451
23 439.137451 -0.001907 0.000954 -179.977768 87.253342 -179.974274 439.137451
[planeLockWeightLeft]
21 1000.000244 -0.000277 -0.000153 -0.011826 -0.004376 0.005620 1000.000244
22 1000.000244 -0.000291 -0.000153 -0.011826 -0.004376 0.005620 1000.000244
23 1000.000244 -0.000305 -0.000153 -0.011826 -0.004376 0.005620 1000.000244
[R_Leg01]
21 761.455627 -0.001907 -0.000358 137.504837 -13.278231 21.986025 761.455688
22 761.455627 -0.001907 -0.000358 130.539703 -12.907214 22.274536 761.455688
23 761.455627 -0.001907 -0.000358 129.915909 -6.361553 24.922733 761.455688
[R_Leg02]
21 1441.140625 0.000000 -0.000238 11.420391 5.848101 -118.186768 1441.140625
22 1441.140625 0.000000 -0.000238 9.701734 9.022609 -134.325226 1441.140625
23 1441.140625 0.000000 -0.000238 4.555722 8.583569 -125.922737 1441.140625
[R_Leg03]
21 1686.963989 0.000954 0.001431 0.138545 -0.088157 147.581039 1686.963989
22 1686.963989 0.000954 0.001431 0.172136 -0.124247 157.867279 1686.963989
23 1686.963989 0.000954 0.001431 0.212932 -0.163102 167.893143 1686.963989
[R_Foot]
21 3041.560059 -30.531288 -11.204481 2.057091 -18.477079 26.997419 3041.734131
22 3041.560059 -30.531288 -11.204481 4.820183 -20.413807 31.342352 3041.734131
23 3041.560059 -30.531288 -11.204481 2.198537 -17.750980 26.657337 3041.734131
[planeAlignerRight]
21 -13.850466 -950.973450 -332.857300 -36.577137 -71.339012 -64.343925 1007.638977
22 16.708925 -926.706421 -316.511230 -36.577137 -71.339012 -64.343925 979.409729
23 45.568123 -906.659912 -302.500366 -36.577137 -71.339012 -64.343925 956.877747
[R_Toe1_01]
21 -188.383347 -224.864899 21.052242 75.549751 10.856519 -146.635086 294.101532
22 -188.383347 -224.864899 21.052242 75.248497 11.047415 -146.812546 294.101532
23 -188.383347 -224.864899 21.052242 74.014198 9.821597 -147.511017 294.101532
[R_Toe2_01]
21 200.637817 -220.002121 -148.787384 -115.516396 18.385801 -117.245621 332.857574
22 200.637817 -220.002121 -148.787384 -114.944733 17.605249 -119.895187 332.857574
23 200.637817 -220.002121 -148.787384 -113.589905 19.122908 -114.551414 332.857574
[R_Toe3_01]
21 188.606735 -220.092957 191.126343 -89.433327 20.875006 -119.160782 347.192566
22 188.606735 -220.092957 191.126343 -92.107216 22.103487 -121.630928 347.192566
23 188.606735 -220.092957 191.126343 -90.698372 21.490749 -117.521973 347.192566
[planeLockWeightRight]
21 0.000000 0.000000 0.000000 -0.011823 -0.004379 -0.000027 0.000000
22 0.000000 0.000000 0.000000 -0.011823 -0.004379 -0.000027 0.000000
23 0.000000 0.000000 0.000000 -0.011823 -0.004379 -0.000027 0.000000
[R_Toe1_02]
21 413.762085 0.000477 -0.000119 0.001431 -20.207121 0.001431 413.762085
22 413.762085 0.000477 -0.000119 0.001444 -18.716791 0.001444 413.762085
23 413.762085 0.000477 -0.000119 0.001449 -18.195704 0.001449 413.762085
[R_Toe1_03]
21 464.317810 0.000000 0.001088 0.000000 89.772713 0.003494 464.317810
22 464.317810 0.000000 0.001088 -179.988235 85.126808 -179.984741 464.317810
23 464.317810 0.000000 0.001088 -179.991714 83.432724 -179.988220 464.317810
[R_Toe2_02]
21 342.234741 -0.000954 0.000238 -0.013069 -73.904709 0.011908 342.234741
22 342.234741 -0.000954 0.000238 -0.008403 -75.531364 0.005482 342.234741
23 342.234741 -0.000954 0.000238 -0.002338 -77.158028 -0.002338 342.234741
[R_Toe2_03]
21 420.210846 0.000715 -0.000268 0.000000 89.675552 -0.003500 420.210846
22 420.210846 0.000715 -0.000268 -179.984436 85.234283 -179.987930 420.210846
23 420.210846 0.000715 -0.000268 -179.992249 79.008949 -179.995758 420.210846
[R_Toe3_02]
21 329.270355 -0.000477 -0.000954 0.001188 -72.034691 0.001188 329.270355
22 329.270355 -0.000477 -0.000954 0.001186 -73.607918 0.001186 329.270355
23 329.270355 -0.000477 -0.000954 0.001183 -75.635071 0.001183 329.270355
[R_Toe3_03]
21 439.137939 0.000238 0.001431 0.010911 77.650238 0.010911 439.137939
22 439.137939 0.000238 0.001431 0.015285 81.192749 0.015285 439.137939
23 439.137939 0.000238 0.001431 -0.018927 86.165184 -0.015428 439.137939
[Rear_Leg02]
21 1162.777710 -0.029802 0.005960 2.151861 -10.404182 -81.979149 1162.777710
22 1162.777710 -0.029802 0.005960 1.783363 -11.428880 -79.241173 1162.777710
23 1162.777710 -0.029802 0.005960 0.943135 -9.984650 -75.801544 1162.777710
[Rear_Leg03]
21 607.192505 -0.013351 -0.073195 0.010638 -0.004793 64.865784 607.192505
22 607.192505 -0.013351 -0.073195 0.006485 -0.002081 63.790779 607.192505
23 607.192505 -0.013351 -0.073195 0.006508 -0.002005 62.450005 607.192505
[Rear_Leg04]
21 995.874512 -0.020504 -0.011921 -0.040661 -0.014770 59.346256 995.874573
22 995.874512 -0.020504 -0.011921 -0.040383 -0.015515 57.239689 995.874573
23 995.874512 -0.020504 -0.011921 -0.040021 -0.016426 54.641342 995.874573
[Rear_Foot]
21 3096.176270 -0.067472 -0.041425 -51.834782 76.690712 118.200294 3096.176270
22 3096.176270 -0.067472 -0.041425 -50.846466 75.200905 117.798401 3096.176270
23 3096.176270 -0.067472 -0.041425 -42.853817 75.236572 123.485558 3096.176270
[planeAlignerCenter]
21 63.075630 -122.981247 -617.022278 12.240772 -0.001473 179.998184 632.312744
22 65.028069 -124.870300 -608.985962 12.240770 -0.001473 179.998184 625.048096
23 65.028641 -124.869995 -608.982300 12.240772 -0.001473 179.998184 625.044556
[Rear_Toe1_01]
21 0.653352 83.966492 -371.173737 -1.845511 27.819761 86.527115 380.553192
22 0.653352 83.966492 -371.173737 -1.892156 27.186949 86.408638 380.553192
23 0.653352 83.966492 -371.173737 -1.892640 27.186481 86.408432 380.553192
[Rear_Toe2_01]
21 178.200760 -294.826019 -362.060547 -8.107719 22.590851 -65.802017 499.765686
22 178.200760 -294.826019 -362.060547 -8.148156 22.076635 -65.758224 499.765686
23 178.200760 -294.826019 -362.060547 -8.148153 22.076630 -65.758209 499.765686
[Rear_Toe3_01]
21 -153.359680 -308.780914 -362.060852 4.073764 23.431158 -107.345535 499.952881
22 -153.359680 -308.780914 -362.060852 4.062057 22.999207 -107.228775 499.952881
23 -153.359680 -308.780914 -362.060852 4.062057 22.999210 -107.228783 499.952881
[planeLockWeightCenter]
21 1000.000488 0.000305 -0.000144 -0.011814 -0.004373 -0.000015 1000.000488
22 1000.000488 0.000305 -0.000136 -0.011814 -0.004373 -0.000015 1000.000488
23 1000.000488 0.000305 -0.000128 -0.011814 -0.004373 -0.000015 1000.000488
[Rear_Toe1_02]
21 379.707825 0.194073 0.000477 -0.002646 -32.757782 -0.002646 379.707855
22 379.707825 0.194073 0.000477 -0.002647 -32.745770 -0.002647 379.707855
23 379.707825 0.194073 0.000477 -0.002647 -32.733734 -0.002647 379.707855
[Rear_Toe1_03]
21 500.129700 0.165701 0.000119 0.000000 89.848053 -0.003495 500.129761
22 500.129700 0.165701 0.000119 -179.939240 88.883728 -179.942734 500.129761
23 500.129700 0.165701 0.000119 -179.939240 88.883904 -179.942734 500.129761
[Rear_Toe2_02]
21 340.494507 0.000238 -0.000954 0.001240 -52.399853 0.001240 340.494507
22 340.494507 0.000238 -0.000954 0.001241 -51.937305 0.001241 340.494507
23 340.494507 0.000238 -0.000954 0.001241 -51.937305 0.001241 340.494507
[Rear_Toe2_03]
21 433.103577 0.000000 0.000238 0.003203 47.017895 0.003203 433.103546
22 433.103577 0.000000 0.000238 0.003166 46.484497 0.003166 433.103546
23 433.103577 0.000000 0.000238 0.002341 46.484493 0.002812 433.103546
[Rear_Toe3_02]
21 340.494141 -0.000358 -0.000477 -0.002418 -57.821651 -0.002418 340.494171
22 340.494141 -0.000358 -0.000477 -0.002419 -57.585491 -0.002419 340.494171
23 340.494141 -0.000358 -0.000477 -0.002419 -57.586212 -0.002419 340.494171
[Rear_Toe3_03]
21 433.103577 0.001431 -0.000238 0.000016 53.303768 -0.003668 433.103546
22 433.103577 0.001431 -0.000238 0.000021 53.215263 -0.003664 433.103546
23 433.103577 0.001431 -0.000238 0.000026 53.126755 -0.003660 433.103546
[Back_Bone]
21 1312.175781 -701.934692 0.000954 2.790756 -1.457651 -85.682373 1488.125488
22 1312.175781 -701.934692 0.000954 2.790756 -1.457651 -85.682373 1488.125488
23 1312.175781 -701.934692 0.000954 2.790756 -1.457651 -85.682373 1488.125488
[Head]
21 1406.159424 809.709290 0.001431 -1.623609 2.697531 7.613079 1622.625488
22 1406.159424 809.709290 0.001431 -1.623609 2.697531 7.613082 1622.625488
23 1406.159424 809.709290 0.001431 -1.623609 2.697531 7.613079 1622.625488
[Motor_Bone]
21 1158.364380 -417.834747 0.000477 3.394447 -1.301976 -115.970810 1231.419434
22 1158.364380 -417.834747 0.000477 3.394448 -1.301977 -115.970810 1231.419434
23 1158.364380 -417.834747 0.000477 3.394448 -1.301977 -115.970810 1231.419434
[Ping_Mechanism]
21 1241.740967 -452.634003 -40.794144 0.000103 -0.000053 82.120995 1322.294312
22 1225.748291 -443.481781 -41.920315 0.000103 -0.000053 82.120995 1304.182617
23 1220.467407 -441.731567 -47.353951 0.000103 -0.000053 82.120995 1298.811035
[BN_LookIK]
21 193.241119 1380.371704 -0.002861 0.000000 89.965736 -31.038179 1393.832153
22 193.241119 1380.371704 -0.002861 0.000000 89.965736 -31.038179 1393.832153
23 193.241119 1380.371704 -0.002861 0.000000 89.965736 -31.038179 1393.832153
[bottomMouth]
21 -435.092926 615.759399 -0.000954 -0.000022 0.000016 73.527184 753.966492
22 -435.092926 615.759399 -0.000954 -0.000022 0.000016 73.527184 753.966492
23 -435.092926 615.759399 -0.000954 -0.000022 0.000016 73.527184 753.966492
[L_Mouth01]
21 554.440979 7.658243 838.222046 150.204178 23.759130 109.605339 1005.027161
22 554.440979 7.658243 838.222046 150.204178 23.759130 109.605339 1005.027161
23 554.440979 7.658243 838.222046 150.204178 23.759130 109.605339 1005.027161
[L_mouthFront]
21 551.629089 934.514771 339.150421 0.000081 2.804060 79.119301 1136.941284
22 551.629089 934.514771 339.150421 0.000081 2.804060 79.119301 1136.941284
23 551.629089 934.514771 339.150421 0.000081 2.804060 79.119301 1136.941284
[mouthGun]
21 55.332661 1627.420898 0.000000 0.000023 0.000009 -11.038128 1628.361328
22 55.332661 1627.420898 0.000000 0.000023 0.000009 -11.038128 1628.361328
23 55.332661 1627.420898 0.000000 0.000023 0.000009 -11.038128 1628.361328
[R_Mouth01]
21 554.442383 7.659197 -838.223938 29.795891 -23.759109 109.605331 1005.029541
22 554.442383 7.659197 -838.223938 29.795891 -23.759109 109.605331 1005.029541
23 554.442383 7.659197 -838.223938 29.795891 -23.759109 109.605331 1005.029541
[R_mouthFront]
21 551.629089 934.514282 -339.151367 0.000029 -2.803930 79.119133 1136.941162
22 551.629089 934.514282 -339.151367 0.000029 -2.803930 79.119133 1136.941162
23 551.629089 934.514282 -339.151367 0.000029 -2.803930 79.119133 1136.941162
[TopMouth]
21 461.269867 -56.106091 -0.008583 -0.000059 -0.000268 92.025169 464.669525
22 461.269867 -56.106091 -0.008583 -0.000059 -0.000268 92.025169 464.669525
23 461.269867 -56.106091 -0.008583 -0.000059 -0.000268 92.025169 464.669525
[weapon_bone]
21 -987.239868 1448.372803 0.001431 0.000000 89.965736 -31.038221 1752.833740
22 -987.239868 1448.372803 0.001431 0.000000 89.965736 -31.038221 1752.833740
23 -987.239868 1448.372803 0.001431 0.000000 89.965736 -31.038221 1752.833740
